#!OML:ASF I:\Actors\actors\Patient Classification 1\Patient 1\Session 1\Subject1.ASF
:FULLY-SPECIFIED
:DEGREES
884
root 0.3879 17.5322 9.60559 13.8644 -1.58383 -11.5486
lowerback 4.70685 -1.47179 4.40714
upperback -6.0342 -1.35209 3.03238
thorax -9.06616 -0.839761 0.919301
lowerneck -12.2038 -11.9243 -9.97262
upperneck 26.4768 -18.702 12.5572
head 13.1062 -8.01838 3.3828
rclavicle -2.15433e-014 -6.20208e-014
rhumerus -2.05763 49.0786 -53.6671
rradius 84.802
rwrist 13.4488
rhand 41.7107 -61.4829
rfingers 7.12502
rthumb 63.7972 -70.5432
lclavicle -2.15433e-014 -6.20208e-014
lhumerus 14.3334 -25.8667 70.8223
lradius 54.1218
lwrist 29.0299
lhand -54.8373 -30.997
lfingers 7.12502
lthumb -27.2245 -2.94156
rfemur -12.1617 18.2687 28.1367
rtibia 8.84803
rfoot -11.7087 -18.5894
rtoes -0.472442
lfemur 0.767248 -45.5997 -5.21727
ltibia -4.08344
lfoot -28.0556 54.6851
ltoes 13.8156
885
root 0.377236 17.5349 9.60533 13.9758 -1.68326 -11.2064
lowerback 4.55409 -1.4037 3.99226
upperback -6.09021 -1.30681 3.01288
thorax -9.02256 -0.79115 1.12056
lowerneck -12.2778 -11.83 -9.86974
upperneck 26.4376 -18.5217 12.4111
head 13.0484 -7.94223 3.3434
rclavicle -1.79652e-014 -3.18055e-015
rhumerus -4.50899 47.4451 -57.0196
rradius 83.9415
rwrist 11.256
rhand 39.5195 -59.3728
rfingers 7.12502
rthumb 61.9957 -70.872
lclavicle -1.79652e-014 -3.18055e-015
lhumerus 14.1626 -25.8514 71.1263
lradius 54.1089
lwrist 29.0736
lhand -54.9314 -31.2401
lfingers 7.12502
lthumb -27.3145 -3.19884
rfemur -12.3042 18.4908 27.6821
rtibia 8.81795
rfoot -11.7409 -18.7365
rtoes -0.238524
lfemur 0.550241 -45.7324 -5.45656
ltibia -3.99785
lfoot -28.2942 54.8125
ltoes 13.9868
886
root 0.366761 17.5378 9.60419 14.0728 -1.79216 -10.957
lowerback 4.42848 -1.3301 3.6838
upperback -6.12709 -1.23982 3.02933
thorax -8.97767 -0.737378 1.29867
lowerneck -12.359 -11.6975 -9.75645
upperneck 26.3108 -18.2584 12.2298
head 12.9393 -7.83507 3.30403
rclavicle 1.1455e-014 -3.10104e-014
rhumerus -6.79504 45.4377 -60.2334
rradius 83.091
rwrist 8.5215
rhand 37.9701 -57.604
rfingers 7.12502
rthumb 60.6922 -70.6365
lclavicle 1.1455e-014 -3.10104e-014
lhumerus 14.0193 -25.8373 71.4129
lradius 54.0866
lwrist 29.1773
lhand -55.0693 -31.37
lfingers 7.12502
lthumb -27.4464 -3.3496
rfemur -12.4485 18.7315 27.341
rtibia 8.82477
rfoot -11.7919 -18.861
rtoes 0.0714212
lfemur 0.353948 -45.7714 -5.59316
ltibia -3.93656
lfoot -28.6512 54.8624
ltoes 14.1928
887
root 0.365261 17.5322 9.59903 13.9504 -1.6792 -11.3796
lowerback 4.58784 -1.31882 4.28908
upperback -6.09217 -1.14855 3.19974
thorax -9.04869 -0.726273 1.13524
lowerneck -12.4627 -11.5343 -9.63335
upperneck 26.1155 -17.9494 12.077
head 12.8046 -7.70469 3.28068
rclavicle -1.11816e-014 1.74931e-014
rhumerus -8.81588 43.3578 -63.2762
rradius 82.2241
rwrist 5.05925
rhand 32.7218 -54.9251
rfingers 7.12502
rthumb 56.1359 -72.209
lclavicle -1.11816e-014 1.74931e-014
lhumerus 13.8717 -25.7538 71.7063
lradius 54.0502
lwrist 29.2282
lhand -55.0495 -31.1918
lfingers 7.12502
lthumb -27.4275 -3.16836
rfemur -12.2474 18.5996 27.9401
rtibia 8.78779
rfoot -11.7743 -18.7102
rtoes -0.0314514
lfemur 0.54199 -45.5171 -5.19361
ltibia -4.02027
lfoot -28.4392 54.6486
ltoes 14.0698
888
root 0.36375 17.5271 9.59602 13.8261 -1.45252 -11.6261
lowerback 4.6845 -1.37429 4.76033
upperback -6.07839 -1.16515 3.31606
thorax -9.10439 -0.761395 1.00169
lowerneck -12.5124 -11.2604 -9.42079
upperneck 25.9168 -17.522 11.9802
head 12.641 -7.51062 3.29038
rclavicle 1.92324e-014 -5.08889e-014
rhumerus -10.7822 41.8556 -66.3889
rradius 81.5027
rwrist -0.30885
rhand 29.9141 -54.6207
rfingers 7.12502
rthumb 53.6297 -73.7061
lclavicle 1.92324e-014 -5.08889e-014
lhumerus 13.5974 -25.6868 71.9433
lradius 54.1043
lwrist 29.2525
lhand -54.9012 -30.8715
lfingers 7.12502
lthumb -27.2857 -2.82572
rfemur -12.0388 18.3885 28.3359
rtibia 8.70413
rfoot -11.7674 -18.662
rtoes -0.149289
lfemur 0.59488 -45.2796 -4.89699
ltibia -4.0472
lfoot -27.6675 54.4092
ltoes 13.4184
889
root 0.354657 17.5278 9.59646 13.7875 -1.38243 -11.5279
lowerback 4.64558 -1.37911 4.73308
upperback -6.09943 -1.17306 3.35127
thorax -9.10316 -0.762237 1.05484
lowerneck -12.9385 -11.0308 -8.96086
upperneck 26.0433 -17.1211 11.4773
head 12.6194 -7.32023 3.08633
rclavicle -1.86361e-014 4.37326e-014
rhumerus -12.2955 39.2408 -69.126
rradius 80.5905
rwrist -1.59908
rhand 31.1771 -52.9545
rfingers 7.12502
rthumb 54.762 -71.264
lclavicle -1.86361e-014 4.37326e-014
lhumerus 13.3269 -25.6955 72.1545
lradius 54.1949
lwrist 29.2977
lhand -54.8043 -30.6903
lfingers 7.12502
lthumb -27.1929 -2.62997
rfemur -11.9614 18.4243 28.2674
rtibia 8.62923
rfoot -11.8028 -18.8
rtoes -0.189117
lfemur 0.575093 -45.2896 -4.9547
ltibia -4.03528
lfoot -27.3655 54.3956
ltoes 13.138
890
root 0.343796 17.5286 9.59635 13.7791 -1.42263 -11.5309
lowerback 4.59629 -1.33054 4.77016
upperback -6.11152 -1.10231 3.41346
thorax -9.086 -0.727667 1.09028
lowerneck -13.1713 -10.7409 -8.634
upperneck 25.8841 -16.6654 11.2777
head 12.4892 -7.10356 3.03416
rclavicle -2.32081e-014 5.32743e-014
rhumerus -13.7378 37.0644 -71.7678
rradius 79.9197
rwrist -3.62504
rhand 28.9553 -52.6352
rfingers 7.12502
rthumb 52.7653 -72.275
lclavicle -2.32081e-014 5.32743e-014
lhumerus 13.2269 -25.6742 72.3845
lradius 54.1546
lwrist 29.3095
lhand -54.8269 -30.7193
lfingers 7.12502
lthumb -27.2146 -2.6623
rfemur -11.9314 18.5523 28.3094
rtibia 8.59953
rfoot -11.8163 -18.8845
rtoes -0.259197
lfemur 0.636527 -45.3298 -4.95088
ltibia -4.05963
lfoot -27.4664 54.4581
ltoes 13.2186
891
root 0.336937 17.5278 9.59519 13.8076 -1.41325 -11.5155
lowerback 4.50707 -1.30527 4.88364
upperback -6.14079 -1.0611 3.44069
thorax -9.06755 -0.7142 1.04932
lowerneck -13.4574 -10.406 -8.18543
upperneck 25.8002 -16.1593 10.9908
head 12.3766 -6.85823 2.93694
rclavicle 3.28989e-014 -1.55052e-014
rhumerus -14.9828 35.1089 -74.2792
rradius 79.368
rwrist -6.13525
rhand 25.5015 -52.59
rfingers 7.12502
rthumb 49.6212 -74.0094
lclavicle 3.28989e-014 -1.55052e-014
lhumerus 13.1366 -25.6215 72.6173
lradius 54.0532
lwrist 29.276
lhand -54.8741 -30.6553
lfingers 7.12502
lthumb -27.2597 -2.60542
rfemur -11.9713 18.5835 28.311
rtibia 8.59896
rfoot -11.8064 -18.915
rtoes -0.313946
lfemur 0.563483 -45.2775 -4.88244
ltibia -4.04912
lfoot -27.28 54.4284
ltoes 12.9552
892
root 0.328575 17.5299 9.59706 13.9456 -1.49373 -11.1176
lowerback 4.25725 -1.26283 4.56194
upperback -6.21908 -1.05341 3.35539
thorax -8.99656 -0.692666 1.13158
lowerneck -13.8511 -10.0827 -7.68786
upperneck 25.8803 -15.6826 10.6241
head 12.3471 -6.62041 2.79196
rclavicle -2.38293e-014 2.46493e-014
rhumerus -16.023 33.0783 -76.5983
rradius 78.9232
rwrist -9.10394
rhand 22.502 -52.6559
rfingers 7.12502
rthumb 46.8584 -75.3842
lclavicle -2.38293e-014 2.46493e-014
lhumerus 12.9917 -25.6108 72.8556
lradius 53.9535
lwrist 29.2544
lhand -54.922 -30.5462
lfingers 7.12502
lthumb -27.3055 -2.50349
rfemur -12.1759 18.7023 27.7812
rtibia 8.59658
rfoot -11.8077 -19.0489
rtoes -0.230518
lfemur 0.32352 -45.483 -5.17043
ltibia -3.96727
lfoot -27.6244 54.5464
ltoes 13.2328
893
root 0.320505 17.5311 9.59954 14.0728 -1.62437 -10.7372
lowerback 3.9955 -1.20225 4.22232
upperback -6.28952 -1.02132 3.28203
thorax -8.90924 -0.65735 1.23327
lowerneck -14.0384 -9.69971 -7.20279
upperneck 25.731 -15.1278 10.3593
head 12.1927 -6.35474 2.70828
rclavicle 1.69588e-014 -3.57812e-015
rhumerus -16.0294 32.8485 -78.0337
rradius 78.1873
rwrist -15.1255
rhand 15.1027 -51.1737
rfingers 7.12502
rthumb 39.9484 -76.4153
lclavicle 1.69588e-014 -3.57812e-015
lhumerus 12.883 -25.5722 73.1137
lradius 53.8163
lwrist 29.2795
lhand -55.0074 -30.6175
lfingers 7.12502
lthumb -27.3872 -2.58774
rfemur -12.36 18.8387 27.2674
rtibia 8.5827
rfoot -11.7804 -19.1603
rtoes -0.381532
lfemur 0.165922 -45.8026 -5.51386
ltibia -3.88839
lfoot -28.3379 54.7588
ltoes 13.8298
